<?xml version="1.0" encoding="UTF-8" standalone="no"?>
<!DOCTYPE svg PUBLIC "-//W3C//DTD SVG 1.1//EN" "http://www.w3.org/Graphics/SVG/1.1/DTD/svg11.dtd">
<svg width="100%" height="100%" viewBox="0 0 1276 1276" version="1.1" xmlns="http://www.w3.org/2000/svg" xmlns:xlink="http://www.w3.org/1999/xlink" xml:space="preserve" xmlns:serif="http://www.serif.com/" style="fill-rule:evenodd;clip-rule:evenodd;stroke-linejoin:round;stroke-miterlimit:2;">
    <g transform="matrix(1,0,0,1,-3181,-2856)">
        <g id="SVG" transform="matrix(1,0,0,1,-0.510697,-0.27411)">
            <rect x="3181.51" y="2856.27" width="1275.5" height="1275.5" style="fill:none;"/>
            <g transform="matrix(0.472644,0,0,0.49199,4605.54,3190.98)">
                <g transform="matrix(0.867474,0.497483,-0.497483,0.867474,-1761.02,-649.705)">
                    <path d="M850.644,233.17C850.644,233.17 836.831,682.891 922.895,718.333C1008.96,753.776 1070.41,848.145 1070.41,958.841L1052.51,1816.13C1052.51,1851.95 1043.97,1894.31 1017.94,1911.63C926.092,1972.75 576.543,1974.55 476.072,1911.63C449.656,1895.09 441.499,1851.95 441.499,1816.13L423.598,958.841C423.598,848.145 485.045,753.761 571.109,718.319C657.172,682.877 643.36,260.085 643.361,233.17C641.164,229.149 636.736,226.96 630.283,226.434C623.832,226.434 617.646,223.868 613.084,219.3C608.523,214.732 605.96,208.537 605.96,202.077L605.96,160.803C605.96,154.343 607.782,146.818 613.084,143.58C658.782,115.662 834.778,115.724 880.64,143.58C885.95,146.805 887.764,154.343 887.764,160.803L887.764,202.077C887.764,208.537 885.202,214.732 880.64,219.3C876.079,223.868 869.892,226.434 863.441,226.434C855.532,225.671 851.522,228.127 850.644,233.17Z" style="fill:rgb(236,235,228);"/>
                </g>
                <g transform="matrix(0.857528,0.491779,-0.497483,0.867474,-1748.55,-657.452)">
                    <path d="M1010.24,1103.82L1011.65,1856.76C1011.65,1888.89 893.793,1914.98 748.631,1914.98C603.468,1914.98 485.615,1888.89 485.615,1856.76L484.209,1389.68" style="fill:rgb(152,58,108);"/>
                </g>
                <g transform="matrix(1.10825,-0.0014066,-0.00816872,0.997302,-2553.48,-434.906)">
                    <ellipse cx="753.812" cy="1230.99" rx="268.462" ry="66.964" style="fill:rgb(101,62,82);"/>
                </g>
                <g transform="matrix(1.33723,0,0,1.33723,-3065.22,-606.522)">
                    <circle cx="1018.14" cy="784.88" r="72.347" style="fill:white;"/>
                </g>
            </g>
        </g>
    </g>
</svg>
